<svg viewBox="0 0 1024 1024" version="1.1" xmlns="http://www.w3.org/2000/svg" width="96" height="96" xmlns:xlink="http://www.w3.org/1999/xlink"><path d="M512 85.333333c235.648 0 426.666667 191.018667 426.666667 426.666667s-191.018667 426.666667-426.666667 426.666667S85.333333 747.648 85.333333 512 276.352 85.333333 512 85.333333zM411.008 353.28A40.789333 40.789333 0 0 0 349.866667 407.168l3.413333 3.84L454.272 512 353.28 612.992A40.789333 40.789333 0 0 0 407.168 674.133333l3.84-3.413333L512 569.728l100.992 101.034667a40.789333 40.789333 0 0 0 61.098667-53.888l-3.413334-3.84L569.728 512l101.034667-100.992A40.789333 40.789333 0 0 0 616.832 349.866667l-3.84 3.413333L512 454.272 411.008 353.28z" fill="#212121" /></svg>