<svg viewBox="0 0 1024 1024" version="1.1" xmlns="http://www.w3.org/2000/svg" width="96" height="96" xmlns:xlink="http://www.w3.org/1999/xlink"><path d="M512 85.333333c235.648 0 426.666667 191.018667 426.666667 426.666667s-191.018667 426.666667-426.666667 426.666667S85.333333 747.648 85.333333 512 276.352 85.333333 512 85.333333z m170.666667 533.333334H341.333333l-4.992 0.298666A42.666667 42.666667 0 0 0 341.333333 704h341.333334l4.992-0.298667A42.666667 42.666667 0 0 0 682.666667 618.666667zM362.666667 341.333333a42.666667 42.666667 0 0 0-42.666667 42.666667v64a42.666667 42.666667 0 0 0 85.333333 0V384a42.666667 42.666667 0 0 0-42.666666-42.666667z m298.666666 0a42.666667 42.666667 0 0 0-42.666666 42.666667v64a42.666667 42.666667 0 0 0 85.333333 0V384a42.666667 42.666667 0 0 0-42.666667-42.666667z" fill="#212121" /></svg>