<svg viewBox="0 0 1024 1024" version="1.1" xmlns="http://www.w3.org/2000/svg" width="96" height="96" xmlns:xlink="http://www.w3.org/1999/xlink"><path d="M451.370667 128a323.370667 323.370667 0 0 1 251.605333 526.506667 40.192 40.192 0 0 1 19.413333 10.794666l161.792 161.792a40.362667 40.362667 0 1 1-57.088 57.088l-161.792-161.792a40.192 40.192 0 0 1-10.794666-19.413333A323.370667 323.370667 0 1 1 451.413333 128zM269.781333 417.877333a42.666667 42.666667 0 0 0-53.333333 28.16c-10.88 35.370667-3.072 72.277333 20.309333 108.629334 21.973333 34.133333 51.626667 58.496 88.106667 71.978666a42.666667 42.666667 0 0 0 34.133333-78.037333l-11.392-4.864c-15.658667-7.253333-28.458667-18.773333-39.125333-35.285333-9.557333-14.848-12.544-25.728-11.178667-34.218667l1.877334-7.893333a42.666667 42.666667 0 0 0-29.397334-48.469334z" fill="#212121" /></svg>