<svg viewBox="0 0 1024 1024" version="1.1" xmlns="http://www.w3.org/2000/svg" width="96" height="96" xmlns:xlink="http://www.w3.org/1999/xlink"><path d="M938.666667 555.349333V810.666667a85.333333 85.333333 0 0 1-85.333334 85.333333H170.666667a85.333333 85.333333 0 0 1-85.333334-85.333333v-255.317334C206.805333 609.109333 351.786667 640 512 640c160.170667 0 305.109333-30.890667 426.666667-84.650667zM746.666667 128A64 64 0 0 1 810.666667 192v85.248h42.666666a85.333333 85.333333 0 0 1 85.333334 85.333333v127.786667C818.944 545.28 671.488 576 512 576c-159.488 0-306.986667-30.762667-426.709333-85.632L85.333333 362.581333a85.333333 85.333333 0 0 1 85.333334-85.333333h42.666666V192a64 64 0 0 1 57.856-63.701333L277.333333 128zM554.666667 405.333333h-85.333334a42.666667 42.666667 0 0 0-4.992 85.034667L469.333333 490.666667h85.333334a42.666667 42.666667 0 0 0 0-85.333334zM725.333333 213.333333H298.666667v63.914667h426.666666V213.333333z" fill="#212121" /></svg>